<svg width="95" height="32" viewBox="0 0 95 32" fill="none" xmlns="http://www.w3.org/2000/svg">
<path d="M14.405 5.58014C13.3075 4.11791 12.1639 3.11153 10.2407 3.11153C7.16367 3.11153 5.25334 5.99241 5.25334 8.82468C5.25334 14.9476 13.8101 14.9041 13.8101 21.8849C13.8101 26.6839 10.2407 31.7108 5.11487 31.7108C3.46555 31.7186 1.86478 31.1537 0.586475 30.1128L1.04291 26.456C2.2327 27.8721 3.65071 28.9246 5.57386 28.9246C8.90733 28.9246 10.9279 25.634 10.9279 22.6173C10.9279 16.9963 2.32501 16.584 2.32501 9.72866C2.32501 5.20368 5.38924 0.358643 10.333 0.358643C12.128 0.358643 13.4896 0.909202 14.864 2.00524L14.405 5.58014Z" fill="#00D4FF"/>
<path d="M31.7929 31.2654H29.0005L32.7545 0.791382H35.5418L31.7929 31.2654Z" fill="#00D4FF"/>
<path d="M62.4967 31.2654H53.2066L56.9606 0.791382H59.753L56.3118 28.6585H62.8095L62.4967 31.2654Z" fill="#00D4FF"/>
<path d="M86.0567 15.4061L90.5415 31.2654H87.6183L83.454 15.9004L81.577 31.2654H78.7871L82.5386 0.791382H85.331L83.636 14.6405L91.3723 0.791382H94.3006L86.0567 15.4061Z" fill="#00D4FF"/>
</svg>
